<svg xmlns="http://www.w3.org/2000/svg" xmlns:xlink="http://www.w3.org/1999/xlink" width="500" zoomAndPan="magnify" viewBox="0 0 375 374.999991" height="500" preserveAspectRatio="xMidYMid meet" version="1.0"><defs><g/><clipPath id="cd9d16fa31"><path d="M 41.179688 212.726562 L 326.929688 212.726562 L 326.929688 245.726562 L 41.179688 245.726562 Z M 41.179688 212.726562 " clip-rule="nonzero"/></clipPath><clipPath id="221c9524b2"><path d="M 27.105469 67.621094 L 327 67.621094 L 327 186.121094 L 27.105469 186.121094 Z M 27.105469 67.621094 " clip-rule="nonzero"/></clipPath><clipPath id="864cd61bd2"><path d="M 27.089844 67.621094 L 327 67.621094 L 327 173.371094 L 27.089844 173.371094 Z M 27.089844 67.621094 " clip-rule="nonzero"/></clipPath><clipPath id="c758420951"><path d="M 27.105469 228.714844 L 327 228.714844 L 327 287.964844 L 27.105469 287.964844 Z M 27.105469 228.714844 " clip-rule="nonzero"/></clipPath></defs><g clip-path="url(#cd9d16fa31)"><path fill="#d8ae69" d="M 233.59375 155.960938 L 212.671875 156.171875 L 197.804688 156.316406 L 186.832031 156.316406 L 171.128906 117.363281 L 197.414062 117.363281 L 234.375 116.992188 C 251.390625 116.824219 260.257812 123.699219 260.378906 135.734375 L 260.386719 136.367188 C 260.519531 149.355469 250.902344 155.78125 233.59375 155.960938 Z M 326.710938 226.613281 C 326.410156 196.523438 310.417969 181.476562 285.394531 172.863281 C 303.496094 164.128906 316.835938 148.789062 316.582031 123.140625 L 316.574219 122.503906 C 316.421875 107.304688 311.316406 95.636719 303.015625 86.851562 C 290.859375 73.984375 272.601562 67.195312 246.789062 67.457031 L 141.480469 68.511719 L 160.113281 107.902344 L 112.433594 108.386719 L 27.25 332.535156 L 87.089844 331.933594 L 101.363281 292.203125 L 117.605469 244.210938 L 134.445312 196.960938 L 146.980469 158 L 147.242188 158 L 162.664062 199.1875 L 197.027344 199.1875 L 241.652344 198.953125 C 260.71875 198.769531 269.597656 206.59375 269.714844 218.628906 L 269.722656 219.261719 C 269.855469 232.25 259.949219 239.628906 242.644531 239.804688 L 197.027344 240.097656 L 184.789062 240.175781 L 174.53125 240.175781 L 193.644531 290.207031 L 204.707031 289.597656 L 249.59375 289.144531 C 298.578125 288.660156 327.097656 265.25 326.714844 227.246094 L 326.710938 226.613281 " fill-opacity="1" fill-rule="nonzero"/></g><g clip-path="url(#221c9524b2)"><path fill="#d8ae69" d="M 233.558594 156.429688 L 212.632812 156.640625 L 197.757812 156.785156 L 186.777344 156.785156 L 171.066406 117.8125 L 197.367188 117.8125 L 234.34375 117.441406 C 251.367188 117.273438 260.238281 124.152344 260.359375 136.195312 L 260.371094 136.828125 C 260.5 149.820312 250.875 156.25 233.558594 156.429688 Z M 326.722656 227.117188 C 326.421875 197.011719 310.421875 181.957031 285.386719 173.34375 C 303.5 164.601562 316.84375 149.253906 316.589844 123.59375 L 316.582031 122.953125 C 316.429688 107.75 311.320312 96.074219 303.015625 87.285156 C 290.855469 74.414062 272.589844 67.621094 246.761719 67.882812 L 141.402344 68.9375 L 160.046875 108.351562 L 112.34375 108.832031 L 27.117188 333.089844 L 86.988281 332.488281 L 101.269531 292.738281 L 117.519531 244.722656 L 134.367188 197.449219 L 146.90625 158.472656 L 147.167969 158.472656 L 162.597656 199.675781 L 196.976562 199.675781 L 241.621094 199.441406 C 260.699219 199.257812 269.582031 207.089844 269.703125 219.125 L 269.707031 219.761719 C 269.839844 232.753906 259.929688 240.140625 242.617188 240.316406 L 196.976562 240.605469 L 184.730469 240.683594 L 174.472656 240.683594 L 193.59375 290.742188 L 204.660156 290.132812 L 249.570312 289.679688 C 298.578125 289.195312 327.109375 265.773438 326.730469 227.75 L 326.722656 227.117188 " fill-opacity="1" fill-rule="nonzero"/></g><g clip-path="url(#864cd61bd2)"><path fill="#213236" d="M 233.542969 156.429688 L 212.617188 156.640625 L 197.742188 156.785156 L 186.761719 156.785156 L 171.050781 117.8125 L 197.351562 117.8125 L 234.328125 117.441406 C 251.351562 117.273438 260.222656 124.152344 260.34375 136.195312 L 260.355469 136.828125 C 260.484375 149.820312 250.859375 156.25 233.542969 156.429688 Z M 326.707031 227.117188 C 326.40625 197.011719 310.40625 181.957031 285.371094 173.34375 C 303.484375 164.601562 316.828125 149.253906 316.574219 123.59375 L 316.566406 122.953125 C 316.414062 107.75 311.304688 96.074219 303 87.285156 C 290.839844 74.414062 272.574219 67.621094 246.746094 67.882812 L 141.386719 68.9375 L 160.03125 108.351562 L 112.328125 108.832031 L 27.101562 333.089844 L 86.972656 332.488281 L 101.253906 292.738281 L 117.503906 244.722656 L 134.351562 197.449219 L 146.890625 158.472656 L 147.152344 158.472656 L 162.582031 199.675781 L 196.960938 199.675781 L 241.605469 199.441406 C 260.683594 199.257812 269.566406 207.089844 269.6875 219.125 L 269.691406 219.761719 C 269.824219 232.753906 259.914062 240.140625 242.601562 240.316406 L 196.960938 240.605469 L 184.714844 240.683594 L 174.457031 240.683594 L 193.578125 290.742188 L 204.644531 290.132812 L 249.554688 289.679688 C 298.5625 289.195312 327.09375 265.773438 326.714844 227.75 L 326.707031 227.117188 " fill-opacity="1" fill-rule="nonzero"/></g><g clip-path="url(#c758420951)"><path fill="#213236" d="M 233.550781 156.0625 L 212.625 156.273438 L 197.75 156.417969 L 186.773438 156.417969 L 171.058594 117.445312 L 197.359375 117.445312 L 234.335938 117.078125 C 251.359375 116.90625 260.230469 123.789062 260.351562 135.828125 L 260.359375 136.460938 C 260.488281 149.453125 250.867188 155.886719 233.550781 156.0625 Z M 326.710938 226.746094 C 326.410156 196.640625 310.410156 181.589844 285.378906 172.972656 C 303.488281 164.234375 316.832031 148.886719 316.578125 123.226562 L 316.570312 122.589844 C 316.417969 107.382812 311.308594 95.710938 303.003906 86.921875 C 290.84375 74.050781 272.578125 67.257812 246.753906 67.519531 L 141.398438 68.574219 L 160.039062 107.984375 L 112.339844 108.464844 L 27.121094 332.714844 L 86.988281 332.113281 L 101.265625 292.367188 L 117.515625 244.355469 L 134.363281 197.078125 L 146.902344 158.105469 L 147.164062 158.105469 L 162.589844 199.308594 L 196.96875 199.308594 L 241.613281 199.074219 C 260.691406 198.890625 269.570312 206.71875 269.691406 218.757812 L 269.699219 219.390625 C 269.832031 232.382812 259.921875 239.769531 242.609375 239.945312 L 196.96875 240.238281 L 184.726562 240.3125 L 174.464844 240.3125 L 193.585938 290.367188 L 204.652344 289.757812 L 249.5625 289.304688 C 298.566406 288.820312 327.097656 265.398438 326.71875 227.378906 L 326.710938 226.746094 " fill-opacity="1" fill-rule="nonzero"/></g><path stroke-linecap="butt" transform="matrix(0.640496, 0, 0, 0.640496, 77.658023, 191.525992)" fill="none" stroke-linejoin="miter" d="M 11.554444 16.127319 L 5.486145 16.127319 L 4.516437 18.999851 L 0.375356 18.999851 L 6.248494 2.752666 L 10.834787 2.752666 L 16.714023 18.999851 L 12.524152 18.999851 Z M 10.535946 13.071824 L 8.517245 7.125501 L 6.529039 13.071824 Z M 25.435298 2.752666 L 25.435298 18.999851 L 21.477181 18.999851 L 21.477181 2.752666 Z M 37.169376 19.164518 C 35.980111 19.164518 34.918921 18.969357 33.973608 18.585133 C 33.034394 18.200909 32.278144 17.627622 31.717055 16.871372 C 31.155966 16.109023 30.857125 15.200303 30.826631 14.139113 L 35.046996 14.139113 C 35.101885 14.742893 35.309244 15.200303 35.669073 15.51744 C 36.022803 15.834577 36.486311 15.993146 37.053499 15.993146 C 37.645082 15.993146 38.10859 15.858972 38.444024 15.584527 C 38.785556 15.31618 38.956322 14.938055 38.956322 14.462349 C 38.956322 14.059828 38.822149 13.730494 38.547703 13.468246 C 38.279356 13.205997 37.943922 12.986441 37.547501 12.815675 C 37.157178 12.644908 36.596089 12.455846 35.876432 12.242388 C 34.82134 11.919152 33.967509 11.589817 33.302741 11.266581 C 32.637972 10.943345 32.070785 10.467639 31.58898 9.833365 C 31.113274 9.19909 30.875421 8.375753 30.875421 7.357255 C 30.875421 5.844754 31.424313 4.655489 32.515997 3.801658 C 33.613779 2.947827 35.040897 2.520912 36.803448 2.520912 C 38.590395 2.520912 40.035809 2.947827 41.133591 3.801658 C 42.225275 4.655489 42.810759 5.850853 42.890044 7.38165 L 38.602592 7.38165 C 38.572098 6.857154 38.383036 6.442436 38.029306 6.143595 C 37.675576 5.838655 37.218166 5.692284 36.663176 5.692284 C 36.181371 5.692284 35.797147 5.820359 35.504405 6.076508 C 35.211663 6.326559 35.065292 6.692486 35.065292 7.168192 C 35.065292 7.692688 35.315343 8.101307 35.809345 8.400148 C 36.303347 8.69289 37.071795 9.010028 38.120787 9.345461 C 39.16978 9.699191 40.023611 10.040724 40.682281 10.36396 C 41.334851 10.687196 41.902039 11.156803 42.377745 11.77888 C 42.85955 12.394858 43.097403 13.187701 43.097403 14.163508 C 43.097403 15.090524 42.865649 15.932158 42.389943 16.688408 C 41.920336 17.444659 41.237271 18.04234 40.340748 18.493651 C 39.444226 18.938863 38.389134 19.164518 37.169376 19.164518 Z M 66.522867 16.127319 L 60.454568 16.127319 L 59.48486 18.999851 L 55.343779 18.999851 L 61.216917 2.752666 L 65.80321 2.752666 L 71.682446 18.999851 L 67.492576 18.999851 Z M 65.504369 13.071824 L 63.485668 7.125501 L 61.497462 13.071824 Z M 84.733864 18.999851 L 81.349034 12.870564 L 80.403721 12.870564 L 80.403721 18.999851 L 76.445604 18.999851 L 76.445604 2.752666 L 83.093289 2.752666 C 84.367936 2.752666 85.45962 2.972222 86.362242 3.423533 C 87.270962 3.868745 87.941829 4.478624 88.387041 5.25927 C 88.838352 6.039915 89.057908 6.905944 89.057908 7.863455 C 89.057908 8.94904 88.752969 9.912649 88.143089 10.760381 C 87.539309 11.608114 86.636687 12.205795 85.447423 12.559525 L 89.204279 18.999851 Z M 80.403721 10.065119 L 82.861534 10.065119 C 83.581192 10.065119 84.123985 9.888254 84.489912 9.534524 C 84.85584 9.180794 85.038804 8.674594 85.038804 8.022023 C 85.038804 7.412144 84.85584 6.92424 84.489912 6.57051 C 84.123985 6.210682 83.581192 6.033817 82.861534 6.033817 L 80.403721 6.033817 Z M 106.207715 2.752666 L 106.207715 5.924038 L 101.908066 5.924038 L 101.908066 18.999851 L 97.94385 18.999851 L 97.94385 5.924038 L 93.638102 5.924038 L 93.638102 2.752666 Z M 128.919621 10.662801 C 129.858835 10.864061 130.615085 11.333668 131.182273 12.071622 C 131.755559 12.803477 132.042203 13.639012 132.042203 14.578226 C 132.042203 15.938257 131.566497 17.011644 130.621184 17.804487 C 129.669772 18.603429 128.346334 18.999851 126.644771 18.999851 L 119.076168 18.999851 L 119.076168 2.752666 L 126.388621 2.752666 C 128.047493 2.752666 129.340437 3.130791 130.267454 3.887041 C 131.200569 4.643292 131.670176 5.667889 131.670176 6.960833 C 131.670176 7.918344 131.420126 8.711187 130.920025 9.345461 C 130.419924 9.979736 129.749056 10.418849 128.919621 10.662801 Z M 123.034285 9.321066 L 125.626272 9.321066 C 126.278843 9.321066 126.772845 9.180794 127.120477 8.894151 C 127.468108 8.607507 127.638874 8.186691 127.638874 7.6317 C 127.638874 7.07671 127.468108 6.649795 127.120477 6.363151 C 126.772845 6.070409 126.278843 5.924038 125.626272 5.924038 L 123.034285 5.924038 Z M 125.949508 15.804083 C 126.614277 15.804083 127.132674 15.657712 127.492503 15.352773 C 127.852332 15.053932 128.035296 14.614819 128.035296 14.041532 C 128.035296 13.474344 127.846233 13.029132 127.462009 12.705896 C 127.089983 12.38266 126.565486 12.217993 125.906817 12.217993 L 123.034285 12.217993 L 123.034285 15.804083 Z M 147.429458 16.127319 L 141.367258 16.127319 L 140.397549 18.999851 L 136.25037 18.999851 L 142.129607 2.752666 L 146.715899 2.752666 L 152.589037 18.999851 L 148.405265 18.999851 Z M 146.417058 13.071824 L 144.398358 7.125501 L 142.404052 13.071824 Z M 161.310311 15.944356 L 166.500384 15.944356 L 166.500384 18.999851 L 157.358293 18.999851 L 157.358293 2.752666 L 161.310311 2.752666 Z M 175.337536 2.752666 L 175.337536 18.999851 L 171.379419 18.999851 L 171.379419 2.752666 Z M 175.337536 2.752666 " stroke="#213236" stroke-width="0.839477" stroke-opacity="1" stroke-miterlimit="4"/><path stroke-linecap="butt" transform="matrix(0.640496, 0, 0, 0.640496, 77.658023, 191.525992)" fill="none" stroke-linejoin="miter" d="M 188.419447 10.851863 C 188.419447 9.247881 188.767078 7.814664 189.456242 6.558313 C 190.157603 5.301961 191.127311 4.320056 192.365366 3.618694 C 193.60952 2.917333 195.018341 2.563603 196.59183 2.563603 C 198.519049 2.563603 200.171822 3.075902 201.54405 4.0944 C 202.916278 5.112899 203.837196 6.497325 204.300704 8.253777 L 199.946166 8.253777 C 199.62293 7.576811 199.165521 7.058414 198.567839 6.704684 C 197.976256 6.350954 197.305389 6.174089 196.549138 6.174089 C 195.323281 6.174089 194.335276 6.601004 193.579026 7.448737 C 192.822776 8.296469 192.450749 9.430844 192.450749 10.851863 C 192.450749 12.272882 192.822776 13.407258 193.579026 14.261089 C 194.335276 15.108821 195.323281 15.529638 196.549138 15.529638 C 197.305389 15.529638 197.976256 15.352773 198.567839 14.999043 C 199.165521 14.639214 199.62293 14.120816 199.946166 13.44385 L 204.300704 13.44385 C 203.837196 15.206402 202.916278 16.590828 201.54405 17.597128 C 200.171822 18.609528 198.519049 19.115728 196.59183 19.115728 C 195.018341 19.115728 193.60952 18.761998 192.365366 18.060637 C 191.127311 17.359276 190.157603 16.383469 189.456242 15.133216 C 188.767078 13.882963 188.419447 12.455846 188.419447 10.851863 Z M 217.400912 19.164518 C 215.870115 19.164518 214.467393 18.810788 213.192745 18.103328 C 211.918097 17.38977 210.905698 16.395666 210.161645 15.121018 C 209.411493 13.846371 209.039467 12.419253 209.039467 10.827468 C 209.039467 9.235683 209.411493 7.808565 210.161645 6.546115 C 210.905698 5.277566 211.918097 4.289562 213.192745 3.582102 C 214.467393 2.874642 215.870115 2.520912 217.400912 2.520912 C 218.925611 2.520912 220.322234 2.874642 221.596882 3.582102 C 222.87153 4.289562 223.871732 5.277566 224.603587 6.546115 C 225.341541 7.808565 225.707469 9.235683 225.707469 10.827468 C 225.707469 12.419253 225.335442 13.846371 224.591389 15.121018 C 223.853435 16.395666 222.853233 17.38977 221.584684 18.103328 C 220.322234 18.810788 218.925611 19.164518 217.400912 19.164518 Z M 217.400912 15.554033 C 218.693856 15.554033 219.730651 15.121018 220.511297 14.261089 C 221.291942 13.388961 221.682265 12.248487 221.682265 10.827468 C 221.682265 9.394252 221.291942 8.247679 220.511297 7.393847 C 219.730651 6.533918 218.693856 6.107002 217.400912 6.107002 C 216.089672 6.107002 215.040679 6.533918 214.260034 7.38165 C 213.479388 8.229382 213.095164 9.375955 213.095164 10.827468 C 213.095164 12.260684 213.479388 13.413356 214.260034 14.267187 C 215.040679 15.127117 216.089672 15.554033 217.400912 15.554033 Z M 234.843461 15.944356 L 240.033534 15.944356 L 240.033534 18.999851 L 230.885344 18.999851 L 230.885344 2.752666 L 234.843461 2.752666 Z M 248.870685 15.944356 L 254.060758 15.944356 L 254.060758 18.999851 L 244.912568 18.999851 L 244.912568 2.752666 L 248.870685 2.752666 Z M 262.89791 5.924038 L 262.89791 9.205189 L 268.197761 9.205189 L 268.197761 12.260684 L 262.89791 12.260684 L 262.89791 15.828478 L 268.893023 15.828478 L 268.893023 18.999851 L 258.939793 18.999851 L 258.939793 2.752666 L 268.893023 2.752666 L 268.893023 5.924038 Z M 273.772058 10.851863 C 273.772058 9.247881 274.119689 7.814664 274.814951 6.558313 C 275.510214 5.301961 276.479922 4.320056 277.717977 3.618694 C 278.962131 2.917333 280.370952 2.563603 281.944441 2.563603 C 283.877758 2.563603 285.524432 3.075902 286.896661 4.0944 C 288.274988 5.112899 289.189807 6.497325 289.653315 8.253777 L 285.304876 8.253777 C 284.98164 7.576811 284.518131 7.058414 283.926548 6.704684 C 283.334966 6.350954 282.657999 6.174089 281.901749 6.174089 C 280.68199 6.174089 279.687887 6.601004 278.931637 7.448737 C 278.181485 8.296469 277.80336 9.430844 277.80336 10.851863 C 277.80336 12.272882 278.181485 13.407258 278.931637 14.261089 C 279.687887 15.108821 280.68199 15.529638 281.901749 15.529638 C 282.657999 15.529638 283.334966 15.352773 283.926548 14.999043 C 284.518131 14.639214 284.98164 14.120816 285.304876 13.44385 L 289.653315 13.44385 C 289.189807 15.206402 288.274988 16.590828 286.896661 17.597128 C 285.524432 18.609528 283.877758 19.115728 281.944441 19.115728 C 280.370952 19.115728 278.962131 18.761998 277.717977 18.060637 C 276.479922 17.359276 275.510214 16.383469 274.814951 15.133216 C 274.119689 13.882963 273.772058 12.455846 273.772058 10.851863 Z M 306.754331 2.752666 L 306.754331 5.924038 L 302.454682 5.924038 L 302.454682 18.999851 L 298.490467 18.999851 L 298.490467 5.924038 L 294.184719 5.924038 L 294.184719 2.752666 Z M 315.689063 2.752666 L 315.689063 18.999851 L 311.730947 18.999851 L 311.730947 2.752666 Z M 329.228384 19.164518 C 327.697587 19.164518 326.300964 18.810788 325.026316 18.103328 C 323.751668 17.38977 322.739268 16.395666 321.989117 15.121018 C 321.245064 13.846371 320.873038 12.419253 320.873038 10.827468 C 320.873038 9.235683 321.245064 7.808565 321.989117 6.546115 C 322.739268 5.277566 323.751668 4.289562 325.026316 3.582102 C 326.300964 2.874642 327.697587 2.520912 329.228384 2.520912 C 330.759181 2.520912 332.155805 2.874642 333.430453 3.582102 C 334.705101 4.289562 335.705303 5.277566 336.437158 6.546115 C 337.169013 7.808565 337.541039 9.235683 337.541039 10.827468 C 337.541039 12.419253 337.169013 13.846371 336.42496 15.121018 C 335.687006 16.395666 334.686804 17.38977 333.418255 18.103328 C 332.149706 18.810788 330.759181 19.164518 329.228384 19.164518 Z M 329.228384 15.554033 C 330.527427 15.554033 331.564222 15.121018 332.344868 14.261089 C 333.125513 13.388961 333.515836 12.248487 333.515836 10.827468 C 333.515836 9.394252 333.125513 8.247679 332.344868 7.393847 C 331.564222 6.533918 330.527427 6.107002 329.228384 6.107002 C 327.917144 6.107002 326.87425 6.533918 326.093605 7.38165 C 325.312959 8.229382 324.922636 9.375955 324.922636 10.827468 C 324.922636 12.260684 325.312959 13.413356 326.093605 14.267187 C 326.87425 15.127117 327.917144 15.554033 329.228384 15.554033 Z M 357.258438 18.999851 L 353.300321 18.999851 L 346.677032 8.973435 L 346.677032 18.999851 L 342.718915 18.999851 L 342.718915 2.752666 L 346.677032 2.752666 L 353.300321 12.815675 L 353.300321 2.752666 L 357.258438 2.752666 Z M 368.986417 19.164518 C 367.797153 19.164518 366.735962 18.969357 365.79065 18.585133 C 364.851435 18.200909 364.095185 17.627622 363.534096 16.871372 C 362.973007 16.109023 362.674166 15.200303 362.643672 14.139113 L 366.864037 14.139113 C 366.925025 14.742893 367.126285 15.200303 367.486114 15.51744 C 367.839844 15.834577 368.303352 15.993146 368.876639 15.993146 C 369.462123 15.993146 369.925631 15.858972 370.267164 15.584527 C 370.602597 15.31618 370.773364 14.938055 370.773364 14.462349 C 370.773364 14.059828 370.63919 13.730494 370.364744 13.468246 C 370.096398 13.205997 369.760964 12.986441 369.364542 12.815675 C 368.97422 12.644908 368.413131 12.455846 367.693473 12.242388 C 366.638382 11.919152 365.784551 11.589817 365.119782 11.266581 C 364.455014 10.943345 363.887826 10.467639 363.406021 9.833365 C 362.930316 9.19909 362.692463 8.375753 362.692463 7.357255 C 362.692463 5.844754 363.241354 4.655489 364.333038 3.801658 C 365.430821 2.947827 366.857938 2.520912 368.62049 2.520912 C 370.407436 2.520912 371.85285 2.947827 372.950633 3.801658 C 374.042317 4.655489 374.6339 5.850853 374.707085 7.38165 L 370.419634 7.38165 C 370.395238 6.857154 370.200077 6.442436 369.846347 6.143595 C 369.492617 5.838655 369.035208 5.692284 368.480217 5.692284 C 367.998413 5.692284 367.614189 5.820359 367.321447 6.076508 C 367.028705 6.326559 366.882334 6.692486 366.882334 7.168192 C 366.882334 7.692688 367.132384 8.101307 367.626386 8.400148 C 368.120389 8.69289 368.888836 9.010028 369.937829 9.345461 C 370.986821 9.699191 371.840652 10.040724 372.499322 10.36396 C 373.151893 10.687196 373.719081 11.156803 374.194787 11.77888 C 374.676591 12.394858 374.914444 13.187701 374.914444 14.163508 C 374.914444 15.090524 374.68269 15.932158 374.206984 16.688408 C 373.737377 17.444659 373.054312 18.04234 372.15779 18.493651 C 371.267366 18.938863 370.206176 19.164518 368.986417 19.164518 Z M 368.986417 19.164518 " stroke="#213236" stroke-width="0.839477" stroke-opacity="1" stroke-miterlimit="4"/><g fill="#213236" fill-opacity="1"><g transform="translate(77.658023, 203.695408)"><g><path d="M 7.40625 -1.84375 L 3.515625 -1.84375 L 2.890625 0 L 0.234375 0 L 4 -10.40625 L 6.9375 -10.40625 L 10.703125 0 L 8.015625 0 Z M 6.75 -3.796875 L 5.453125 -7.609375 L 4.1875 -3.796875 Z M 6.75 -3.796875 "/></g></g></g><g fill="#213236" fill-opacity="1"><g transform="translate(90.494871, 203.695408)"><g><path d="M 3.453125 -10.40625 L 3.453125 0 L 0.921875 0 L 0.921875 -10.40625 Z M 3.453125 -10.40625 "/></g></g></g><g fill="#213236" fill-opacity="1"><g transform="translate(96.780614, 203.695408)"><g><path d="M 4.6875 0.109375 C 3.925781 0.109375 3.242188 -0.015625 2.640625 -0.265625 C 2.035156 -0.515625 1.550781 -0.878906 1.1875 -1.359375 C 0.832031 -1.847656 0.644531 -2.429688 0.625 -3.109375 L 3.328125 -3.109375 C 3.359375 -2.722656 3.488281 -2.425781 3.71875 -2.21875 C 3.945312 -2.019531 4.242188 -1.921875 4.609375 -1.921875 C 4.984375 -1.921875 5.28125 -2.007812 5.5 -2.1875 C 5.71875 -2.363281 5.828125 -2.601562 5.828125 -2.90625 C 5.828125 -3.164062 5.738281 -3.378906 5.5625 -3.546875 C 5.394531 -3.710938 5.179688 -3.847656 4.921875 -3.953125 C 4.671875 -4.066406 4.316406 -4.191406 3.859375 -4.328125 C 3.179688 -4.535156 2.628906 -4.742188 2.203125 -4.953125 C 1.785156 -5.160156 1.421875 -5.46875 1.109375 -5.875 C 0.804688 -6.28125 0.65625 -6.804688 0.65625 -7.453125 C 0.65625 -8.421875 1.003906 -9.179688 1.703125 -9.734375 C 2.410156 -10.285156 3.328125 -10.5625 4.453125 -10.5625 C 5.597656 -10.5625 6.519531 -10.285156 7.21875 -9.734375 C 7.925781 -9.179688 8.300781 -8.414062 8.34375 -7.4375 L 5.609375 -7.4375 C 5.585938 -7.78125 5.460938 -8.046875 5.234375 -8.234375 C 5.003906 -8.429688 4.710938 -8.53125 4.359375 -8.53125 C 4.054688 -8.53125 3.8125 -8.445312 3.625 -8.28125 C 3.4375 -8.113281 3.34375 -7.878906 3.34375 -7.578125 C 3.34375 -7.242188 3.5 -6.984375 3.8125 -6.796875 C 4.125 -6.609375 4.617188 -6.40625 5.296875 -6.1875 C 5.960938 -5.957031 6.503906 -5.738281 6.921875 -5.53125 C 7.347656 -5.320312 7.710938 -5.019531 8.015625 -4.625 C 8.328125 -4.226562 8.484375 -3.71875 8.484375 -3.09375 C 8.484375 -2.5 8.332031 -1.957031 8.03125 -1.46875 C 7.726562 -0.988281 7.289062 -0.601562 6.71875 -0.3125 C 6.144531 -0.03125 5.46875 0.109375 4.6875 0.109375 Z M 4.6875 0.109375 "/></g></g></g><g fill="#213236" fill-opacity="1"><g transform="translate(107.809238, 203.695408)"><g/></g></g><g fill="#213236" fill-opacity="1"><g transform="translate(112.8648, 203.695408)"><g><path d="M 7.40625 -1.84375 L 3.515625 -1.84375 L 2.890625 0 L 0.234375 0 L 4 -10.40625 L 6.9375 -10.40625 L 10.703125 0 L 8.015625 0 Z M 6.75 -3.796875 L 5.453125 -7.609375 L 4.1875 -3.796875 Z M 6.75 -3.796875 "/></g></g></g><g fill="#213236" fill-opacity="1"><g transform="translate(125.701646, 203.695408)"><g><path d="M 6.234375 0 L 4.0625 -3.921875 L 3.453125 -3.921875 L 3.453125 0 L 0.921875 0 L 0.921875 -10.40625 L 5.171875 -10.40625 C 5.992188 -10.40625 6.691406 -10.257812 7.265625 -9.96875 C 7.847656 -9.6875 8.28125 -9.296875 8.5625 -8.796875 C 8.851562 -8.296875 9 -7.738281 9 -7.125 C 9 -6.4375 8.800781 -5.820312 8.40625 -5.28125 C 8.019531 -4.738281 7.445312 -4.351562 6.6875 -4.125 L 9.09375 0 Z M 3.453125 -5.71875 L 5.03125 -5.71875 C 5.488281 -5.71875 5.832031 -5.832031 6.0625 -6.0625 C 6.300781 -6.289062 6.421875 -6.613281 6.421875 -7.03125 C 6.421875 -7.425781 6.300781 -7.734375 6.0625 -7.953125 C 5.832031 -8.179688 5.488281 -8.296875 5.03125 -8.296875 L 3.453125 -8.296875 Z M 3.453125 -5.71875 "/></g></g></g><g fill="#213236" fill-opacity="1"><g transform="translate(137.27867, 203.695408)"><g><path d="M 8.40625 -10.40625 L 8.40625 -8.375 L 5.65625 -8.375 L 5.65625 0 L 3.109375 0 L 3.109375 -8.375 L 0.359375 -8.375 L 0.359375 -10.40625 Z M 8.40625 -10.40625 "/></g></g></g><g fill="#213236" fill-opacity="1"><g transform="translate(147.951576, 203.695408)"><g/></g></g><g fill="#213236" fill-opacity="1"><g transform="translate(153.007138, 203.695408)"><g><path d="M 7.21875 -5.34375 C 7.820312 -5.207031 8.304688 -4.90625 8.671875 -4.4375 C 9.035156 -3.96875 9.21875 -3.429688 9.21875 -2.828125 C 9.21875 -1.960938 8.914062 -1.273438 8.3125 -0.765625 C 7.707031 -0.253906 6.859375 0 5.765625 0 L 0.921875 0 L 0.921875 -10.40625 L 5.609375 -10.40625 C 6.660156 -10.40625 7.484375 -10.160156 8.078125 -9.671875 C 8.679688 -9.191406 8.984375 -8.535156 8.984375 -7.703125 C 8.984375 -7.097656 8.820312 -6.59375 8.5 -6.1875 C 8.175781 -5.78125 7.75 -5.5 7.21875 -5.34375 Z M 3.453125 -6.203125 L 5.109375 -6.203125 C 5.523438 -6.203125 5.84375 -6.289062 6.0625 -6.46875 C 6.289062 -6.65625 6.40625 -6.925781 6.40625 -7.28125 C 6.40625 -7.632812 6.289062 -7.90625 6.0625 -8.09375 C 5.84375 -8.28125 5.523438 -8.375 5.109375 -8.375 L 3.453125 -8.375 Z M 5.328125 -2.046875 C 5.753906 -2.046875 6.082031 -2.140625 6.3125 -2.328125 C 6.539062 -2.523438 6.65625 -2.804688 6.65625 -3.171875 C 6.65625 -3.535156 6.535156 -3.820312 6.296875 -4.03125 C 6.054688 -4.238281 5.722656 -4.34375 5.296875 -4.34375 L 3.453125 -4.34375 L 3.453125 -2.046875 Z M 5.328125 -2.046875 "/></g></g></g><g fill="#213236" fill-opacity="1"><g transform="translate(164.687909, 203.695408)"><g><path d="M 7.40625 -1.84375 L 3.515625 -1.84375 L 2.890625 0 L 0.234375 0 L 4 -10.40625 L 6.9375 -10.40625 L 10.703125 0 L 8.015625 0 Z M 6.75 -3.796875 L 5.453125 -7.609375 L 4.1875 -3.796875 Z M 6.75 -3.796875 "/></g></g></g><g fill="#213236" fill-opacity="1"><g transform="translate(177.524755, 203.695408)"><g><path d="M 3.453125 -1.953125 L 6.78125 -1.953125 L 6.78125 0 L 0.921875 0 L 0.921875 -10.40625 L 3.453125 -10.40625 Z M 3.453125 -1.953125 "/></g></g></g><g fill="#213236" fill-opacity="1"><g transform="translate(186.508014, 203.695408)"><g><path d="M 3.453125 -10.40625 L 3.453125 0 L 0.921875 0 L 0.921875 -10.40625 Z M 3.453125 -10.40625 "/></g></g></g><g fill="#213236" fill-opacity="1"><g transform="translate(192.793756, 203.695408)"><g/></g></g><g fill="#213236" fill-opacity="1"><g transform="translate(197.851019, 203.695408)"><g><path d="M 0.484375 -5.21875 C 0.484375 -6.25 0.707031 -7.164062 1.15625 -7.96875 C 1.601562 -8.769531 2.222656 -9.394531 3.015625 -9.84375 C 3.816406 -10.300781 4.71875 -10.53125 5.71875 -10.53125 C 6.957031 -10.53125 8.015625 -10.203125 8.890625 -9.546875 C 9.773438 -8.898438 10.363281 -8.007812 10.65625 -6.875 L 7.875 -6.875 C 7.664062 -7.3125 7.367188 -7.644531 6.984375 -7.875 C 6.609375 -8.101562 6.175781 -8.21875 5.6875 -8.21875 C 4.90625 -8.21875 4.269531 -7.941406 3.78125 -7.390625 C 3.300781 -6.847656 3.0625 -6.125 3.0625 -5.21875 C 3.0625 -4.3125 3.300781 -3.582031 3.78125 -3.03125 C 4.269531 -2.488281 4.90625 -2.21875 5.6875 -2.21875 C 6.175781 -2.21875 6.609375 -2.332031 6.984375 -2.5625 C 7.367188 -2.789062 7.664062 -3.125 7.875 -3.5625 L 10.65625 -3.5625 C 10.363281 -2.4375 9.773438 -1.546875 8.890625 -0.890625 C 8.015625 -0.242188 6.957031 0.078125 5.71875 0.078125 C 4.71875 0.078125 3.816406 -0.144531 3.015625 -0.59375 C 2.222656 -1.050781 1.601562 -1.675781 1.15625 -2.46875 C 0.707031 -3.269531 0.484375 -4.1875 0.484375 -5.21875 Z M 0.484375 -5.21875 "/></g></g></g><g fill="#213236" fill-opacity="1"><g transform="translate(211.058408, 203.695408)"><g><path d="M 5.84375 0.109375 C 4.863281 0.109375 3.960938 -0.117188 3.140625 -0.578125 C 2.328125 -1.035156 1.679688 -1.671875 1.203125 -2.484375 C 0.722656 -3.296875 0.484375 -4.210938 0.484375 -5.234375 C 0.484375 -6.253906 0.722656 -7.164062 1.203125 -7.96875 C 1.679688 -8.78125 2.328125 -9.414062 3.140625 -9.875 C 3.960938 -10.332031 4.863281 -10.5625 5.84375 -10.5625 C 6.820312 -10.5625 7.71875 -10.332031 8.53125 -9.875 C 9.34375 -9.414062 9.984375 -8.78125 10.453125 -7.96875 C 10.929688 -7.164062 11.171875 -6.253906 11.171875 -5.234375 C 11.171875 -4.210938 10.929688 -3.296875 10.453125 -2.484375 C 9.972656 -1.671875 9.328125 -1.035156 8.515625 -0.578125 C 7.710938 -0.117188 6.820312 0.109375 5.84375 0.109375 Z M 5.84375 -2.203125 C 6.675781 -2.203125 7.335938 -2.476562 7.828125 -3.03125 C 8.328125 -3.59375 8.578125 -4.328125 8.578125 -5.234375 C 8.578125 -6.148438 8.328125 -6.882812 7.828125 -7.4375 C 7.335938 -7.988281 6.675781 -8.265625 5.84375 -8.265625 C 5 -8.265625 4.328125 -7.988281 3.828125 -7.4375 C 3.328125 -6.894531 3.078125 -6.160156 3.078125 -5.234375 C 3.078125 -4.316406 3.328125 -3.582031 3.828125 -3.03125 C 4.328125 -2.476562 5 -2.203125 5.84375 -2.203125 Z M 5.84375 -2.203125 "/></g></g></g><g fill="#213236" fill-opacity="1"><g transform="translate(224.62151, 203.695408)"><g><path d="M 3.453125 -1.953125 L 6.78125 -1.953125 L 6.78125 0 L 0.921875 0 L 0.921875 -10.40625 L 3.453125 -10.40625 Z M 3.453125 -1.953125 "/></g></g></g><g fill="#213236" fill-opacity="1"><g transform="translate(233.604769, 203.695408)"><g><path d="M 3.453125 -1.953125 L 6.78125 -1.953125 L 6.78125 0 L 0.921875 0 L 0.921875 -10.40625 L 3.453125 -10.40625 Z M 3.453125 -1.953125 "/></g></g></g><g fill="#213236" fill-opacity="1"><g transform="translate(242.588031, 203.695408)"><g><path d="M 3.453125 -8.375 L 3.453125 -6.265625 L 6.84375 -6.265625 L 6.84375 -4.3125 L 3.453125 -4.3125 L 3.453125 -2.03125 L 7.296875 -2.03125 L 7.296875 0 L 0.921875 0 L 0.921875 -10.40625 L 7.296875 -10.40625 L 7.296875 -8.375 Z M 3.453125 -8.375 "/></g></g></g><g fill="#213236" fill-opacity="1"><g transform="translate(252.519866, 203.695408)"><g><path d="M 0.484375 -5.21875 C 0.484375 -6.25 0.707031 -7.164062 1.15625 -7.96875 C 1.601562 -8.769531 2.222656 -9.394531 3.015625 -9.84375 C 3.816406 -10.300781 4.71875 -10.53125 5.71875 -10.53125 C 6.957031 -10.53125 8.015625 -10.203125 8.890625 -9.546875 C 9.773438 -8.898438 10.363281 -8.007812 10.65625 -6.875 L 7.875 -6.875 C 7.664062 -7.3125 7.367188 -7.644531 6.984375 -7.875 C 6.609375 -8.101562 6.175781 -8.21875 5.6875 -8.21875 C 4.90625 -8.21875 4.269531 -7.941406 3.78125 -7.390625 C 3.300781 -6.847656 3.0625 -6.125 3.0625 -5.21875 C 3.0625 -4.3125 3.300781 -3.582031 3.78125 -3.03125 C 4.269531 -2.488281 4.90625 -2.21875 5.6875 -2.21875 C 6.175781 -2.21875 6.609375 -2.332031 6.984375 -2.5625 C 7.367188 -2.789062 7.664062 -3.125 7.875 -3.5625 L 10.65625 -3.5625 C 10.363281 -2.4375 9.773438 -1.546875 8.890625 -0.890625 C 8.015625 -0.242188 6.957031 0.078125 5.71875 0.078125 C 4.71875 0.078125 3.816406 -0.144531 3.015625 -0.59375 C 2.222656 -1.050781 1.601562 -1.675781 1.15625 -2.46875 C 0.707031 -3.269531 0.484375 -4.1875 0.484375 -5.21875 Z M 0.484375 -5.21875 "/></g></g></g><g fill="#213236" fill-opacity="1"><g transform="translate(265.727253, 203.695408)"><g><path d="M 8.40625 -10.40625 L 8.40625 -8.375 L 5.65625 -8.375 L 5.65625 0 L 3.109375 0 L 3.109375 -8.375 L 0.359375 -8.375 L 0.359375 -10.40625 Z M 8.40625 -10.40625 "/></g></g></g><g fill="#213236" fill-opacity="1"><g transform="translate(276.400159, 203.695408)"><g><path d="M 3.453125 -10.40625 L 3.453125 0 L 0.921875 0 L 0.921875 -10.40625 Z M 3.453125 -10.40625 "/></g></g></g><g fill="#213236" fill-opacity="1"><g transform="translate(282.685906, 203.695408)"><g><path d="M 5.84375 0.109375 C 4.863281 0.109375 3.960938 -0.117188 3.140625 -0.578125 C 2.328125 -1.035156 1.679688 -1.671875 1.203125 -2.484375 C 0.722656 -3.296875 0.484375 -4.210938 0.484375 -5.234375 C 0.484375 -6.253906 0.722656 -7.164062 1.203125 -7.96875 C 1.679688 -8.78125 2.328125 -9.414062 3.140625 -9.875 C 3.960938 -10.332031 4.863281 -10.5625 5.84375 -10.5625 C 6.820312 -10.5625 7.71875 -10.332031 8.53125 -9.875 C 9.34375 -9.414062 9.984375 -8.78125 10.453125 -7.96875 C 10.929688 -7.164062 11.171875 -6.253906 11.171875 -5.234375 C 11.171875 -4.210938 10.929688 -3.296875 10.453125 -2.484375 C 9.972656 -1.671875 9.328125 -1.035156 8.515625 -0.578125 C 7.710938 -0.117188 6.820312 0.109375 5.84375 0.109375 Z M 5.84375 -2.203125 C 6.675781 -2.203125 7.335938 -2.476562 7.828125 -3.03125 C 8.328125 -3.59375 8.578125 -4.328125 8.578125 -5.234375 C 8.578125 -6.148438 8.328125 -6.882812 7.828125 -7.4375 C 7.335938 -7.988281 6.675781 -8.265625 5.84375 -8.265625 C 5 -8.265625 4.328125 -7.988281 3.828125 -7.4375 C 3.328125 -6.894531 3.078125 -6.160156 3.078125 -5.234375 C 3.078125 -4.316406 3.328125 -3.582031 3.828125 -3.03125 C 4.328125 -2.476562 5 -2.203125 5.84375 -2.203125 Z M 5.84375 -2.203125 "/></g></g></g><g fill="#213236" fill-opacity="1"><g transform="translate(296.249008, 203.695408)"><g><path d="M 10.234375 0 L 7.703125 0 L 3.453125 -6.421875 L 3.453125 0 L 0.921875 0 L 0.921875 -10.40625 L 3.453125 -10.40625 L 7.703125 -3.953125 L 7.703125 -10.40625 L 10.234375 -10.40625 Z M 10.234375 0 "/></g></g></g><g fill="#213236" fill-opacity="1"><g transform="translate(309.308174, 203.695408)"><g><path d="M 4.6875 0.109375 C 3.925781 0.109375 3.242188 -0.015625 2.640625 -0.265625 C 2.035156 -0.515625 1.550781 -0.878906 1.1875 -1.359375 C 0.832031 -1.847656 0.644531 -2.429688 0.625 -3.109375 L 3.328125 -3.109375 C 3.359375 -2.722656 3.488281 -2.425781 3.71875 -2.21875 C 3.945312 -2.019531 4.242188 -1.921875 4.609375 -1.921875 C 4.984375 -1.921875 5.28125 -2.007812 5.5 -2.1875 C 5.71875 -2.363281 5.828125 -2.601562 5.828125 -2.90625 C 5.828125 -3.164062 5.738281 -3.378906 5.5625 -3.546875 C 5.394531 -3.710938 5.179688 -3.847656 4.921875 -3.953125 C 4.671875 -4.066406 4.316406 -4.191406 3.859375 -4.328125 C 3.179688 -4.535156 2.628906 -4.742188 2.203125 -4.953125 C 1.785156 -5.160156 1.421875 -5.46875 1.109375 -5.875 C 0.804688 -6.28125 0.65625 -6.804688 0.65625 -7.453125 C 0.65625 -8.421875 1.003906 -9.179688 1.703125 -9.734375 C 2.410156 -10.285156 3.328125 -10.5625 4.453125 -10.5625 C 5.597656 -10.5625 6.519531 -10.285156 7.21875 -9.734375 C 7.925781 -9.179688 8.300781 -8.414062 8.34375 -7.4375 L 5.609375 -7.4375 C 5.585938 -7.78125 5.460938 -8.046875 5.234375 -8.234375 C 5.003906 -8.429688 4.710938 -8.53125 4.359375 -8.53125 C 4.054688 -8.53125 3.8125 -8.445312 3.625 -8.28125 C 3.4375 -8.113281 3.34375 -7.878906 3.34375 -7.578125 C 3.34375 -7.242188 3.5 -6.984375 3.8125 -6.796875 C 4.125 -6.609375 4.617188 -6.40625 5.296875 -6.1875 C 5.960938 -5.957031 6.503906 -5.738281 6.921875 -5.53125 C 7.347656 -5.320312 7.710938 -5.019531 8.015625 -4.625 C 8.328125 -4.226562 8.484375 -3.71875 8.484375 -3.09375 C 8.484375 -2.5 8.332031 -1.957031 8.03125 -1.46875 C 7.726562 -0.988281 7.289062 -0.601562 6.71875 -0.3125 C 6.144531 -0.03125 5.46875 0.109375 4.6875 0.109375 Z M 4.6875 0.109375 "/></g></g></g></svg>